<svg width="14" height="22" viewBox="0 0 14 22" fill="none" xmlns="http://www.w3.org/2000/svg">
<path d="M11.654 8.24055C10.9562 9.84454 9.46473 11.0546 7.60466 11.3106C4.77095 11.699 2.15954 9.7151 1.7712 6.88138C1.38287 4.04767 3.36675 1.43626 6.20047 1.04793C7.42456 0.881899 8.60645 1.15486 9.58573 1.74862" stroke="white" stroke-width="1.5" stroke-linecap="round" stroke-linejoin="round"/>
<path d="M5.29736 6.03712L7.03361 7.77056L11.6711 3.85063" stroke="white" stroke-width="1.5" stroke-linecap="round" stroke-linejoin="round"/>
<path d="M10.2135 10.5106L12.2498 19.3772C12.4693 20.484 11.3353 21.3476 10.3232 20.8611L7.77476 19.1218C7.3114 18.8056 6.68954 18.8056 6.22618 19.1218L3.67774 20.8611C2.66568 21.3354 1.53169 20.484 1.75117 19.3772L3.29974 10.5106" stroke="white" stroke-width="1.5" stroke-miterlimit="10" stroke-linecap="round"/>
</svg>
