<svg width="18" height="22" viewBox="0 0 18 22" fill="none" xmlns="http://www.w3.org/2000/svg">
<path d="M10.8447 15.0528L7.29592 14.9065C6.7569 14.9065 6.32031 14.4699 6.32031 13.9309L6.42519 12.1723C6.42519 11.6333 6.86178 11.1967 7.4008 11.1967L10.8154 11.0943C11.3545 11.0943 11.791 11.5309 11.791 12.0699L11.8203 14.0748C11.8203 14.6138 11.3837 15.0504 10.8447 15.0504V15.0528Z" stroke="white" stroke-width="1.5" stroke-linecap="round" stroke-linejoin="round"/>
<path d="M7.27222 8.89886C7.27222 7.90374 8.07222 7.1013 9.06002 7.1013C10.0478 7.1013 10.8478 7.9013 10.8478 8.89886V11.0964H7.27222V8.89886Z" stroke="white" stroke-width="1.5" stroke-linecap="round" stroke-linejoin="round"/>
<path d="M0.806674 6.16243V11.1249C0.806674 11.6188 0.865422 12.1127 0.982922 12.5949C1.15917 13.2534 1.39418 13.959 1.74668 14.6881C3.49743 18.3453 6.74045 20.1445 8.4442 20.8853C8.78496 21.0382 9.17271 21.0382 9.52521 20.8853C10.7237 20.3797 12.6037 19.3801 14.284 17.4633C15.7292 15.817 16.493 14.1236 16.8925 12.8889C17.0922 12.2891 17.1862 11.6659 17.1862 11.0309V6.02131C17.2097 5.8214 17.292 4.98648 16.7632 4.18683C16.211 3.3519 15.3767 3.11671 15.177 3.06968C13.344 2.41114 11.4992 1.75261 9.66621 1.10584C9.27845 0.964721 8.8437 0.964721 8.45595 1.10584L2.63968 3.19903C2.36943 3.34014 1.72318 3.71645 1.26493 4.48082C0.853674 5.17463 0.794922 5.84492 0.794922 6.15067L0.806674 6.16243Z" stroke="white" stroke-width="1.5" stroke-miterlimit="10"/>
</svg>
